<mxfile host="app.diagrams.net" modified="2023-04-02T20:50:18.396Z" agent="Mozilla/5.0 (Macintosh; Intel Mac OS X 10_15_7) AppleWebKit/605.1.15 (KHTML, like Gecko) Version/16.2 Safari/605.1.15" etag="QGotQDWsjsJyNn7a_27d" version="21.1.1" type="github">
  <diagram name="Page-1" id="PoJWFuyAsTQAJJArb5kZ">
    <mxGraphModel dx="954" dy="647" grid="1" gridSize="10" guides="1" tooltips="1" connect="1" arrows="1" fold="1" page="1" pageScale="1" pageWidth="827" pageHeight="1169" math="0" shadow="0">
      <root>
        <mxCell id="0" />
        <mxCell id="1" parent="0" />
        <mxCell id="-qMNbedY1m8K66-bMCqv-1" value="Actor" style="shape=umlActor;verticalLabelPosition=bottom;verticalAlign=top;html=1;outlineConnect=0;" vertex="1" parent="1">
          <mxGeometry x="10" y="240" width="30" height="60" as="geometry" />
        </mxCell>
        <mxCell id="-qMNbedY1m8K66-bMCqv-26" value="" style="endArrow=classic;html=1;rounded=0;entryX=0.483;entryY=0.745;entryDx=0;entryDy=0;entryPerimeter=0;" edge="1" parent="1">
          <mxGeometry width="50" height="50" relative="1" as="geometry">
            <mxPoint x="260" y="190" as="sourcePoint" />
            <mxPoint x="339.8600000000001" y="210.04999999999995" as="targetPoint" />
          </mxGeometry>
        </mxCell>
        <mxCell id="-qMNbedY1m8K66-bMCqv-31" value="" style="endArrow=classic;html=1;rounded=0;entryX=0;entryY=0;entryDx=0;entryDy=0;" edge="1" parent="1" target="-qMNbedY1m8K66-bMCqv-35">
          <mxGeometry width="50" height="50" relative="1" as="geometry">
            <mxPoint x="210" y="145" as="sourcePoint" />
            <mxPoint x="289.8600000000001" y="165.04999999999995" as="targetPoint" />
          </mxGeometry>
        </mxCell>
        <mxCell id="-qMNbedY1m8K66-bMCqv-32" value="Login with e-devlet" style="ellipse;whiteSpace=wrap;html=1;aspect=fixed;" vertex="1" parent="1">
          <mxGeometry x="130" y="225" width="80" height="80" as="geometry" />
        </mxCell>
        <mxCell id="-qMNbedY1m8K66-bMCqv-33" value="Login" style="ellipse;whiteSpace=wrap;html=1;aspect=fixed;" vertex="1" parent="1">
          <mxGeometry x="130" y="105" width="80" height="80" as="geometry" />
        </mxCell>
        <mxCell id="-qMNbedY1m8K66-bMCqv-34" value="sign up" style="ellipse;whiteSpace=wrap;html=1;aspect=fixed;" vertex="1" parent="1">
          <mxGeometry x="130" y="355" width="80" height="80" as="geometry" />
        </mxCell>
        <mxCell id="-qMNbedY1m8K66-bMCqv-35" value="use and password" style="ellipse;whiteSpace=wrap;html=1;" vertex="1" parent="1">
          <mxGeometry x="260" y="155" width="80" height="80" as="geometry" />
        </mxCell>
        <mxCell id="-qMNbedY1m8K66-bMCqv-37" value="" style="endArrow=classic;html=1;rounded=0;" edge="1" parent="1">
          <mxGeometry width="50" height="50" relative="1" as="geometry">
            <mxPoint x="210" y="260" as="sourcePoint" />
            <mxPoint x="260" y="210" as="targetPoint" />
            <Array as="points" />
          </mxGeometry>
        </mxCell>
        <mxCell id="-qMNbedY1m8K66-bMCqv-39" value="aşı randevu al" style="ellipse;whiteSpace=wrap;html=1;" vertex="1" parent="1">
          <mxGeometry x="420" y="120" width="110" height="80" as="geometry" />
        </mxCell>
        <mxCell id="-qMNbedY1m8K66-bMCqv-40" value="aile hekimi rendevu al" style="ellipse;whiteSpace=wrap;html=1;" vertex="1" parent="1">
          <mxGeometry x="420" y="225" width="110" height="80" as="geometry" />
        </mxCell>
        <mxCell id="-qMNbedY1m8K66-bMCqv-48" value="" style="edgeStyle=orthogonalEdgeStyle;rounded=0;orthogonalLoop=1;jettySize=auto;html=1;" edge="1" parent="1" source="-qMNbedY1m8K66-bMCqv-41" target="-qMNbedY1m8K66-bMCqv-47">
          <mxGeometry relative="1" as="geometry" />
        </mxCell>
        <mxCell id="-qMNbedY1m8K66-bMCqv-41" value="hastane randevu al" style="ellipse;whiteSpace=wrap;html=1;" vertex="1" parent="1">
          <mxGeometry x="420" y="330" width="100" height="80" as="geometry" />
        </mxCell>
        <mxCell id="-qMNbedY1m8K66-bMCqv-42" value="" style="endArrow=classic;html=1;rounded=0;entryX=0.413;entryY=0.988;entryDx=0;entryDy=0;entryPerimeter=0;" edge="1" parent="1" target="-qMNbedY1m8K66-bMCqv-35">
          <mxGeometry width="50" height="50" relative="1" as="geometry">
            <mxPoint x="210" y="380" as="sourcePoint" />
            <mxPoint x="260" y="330" as="targetPoint" />
          </mxGeometry>
        </mxCell>
        <mxCell id="-qMNbedY1m8K66-bMCqv-43" value="" style="endArrow=classic;html=1;rounded=0;exitX=1;exitY=1;exitDx=0;exitDy=0;" edge="1" parent="1" source="-qMNbedY1m8K66-bMCqv-35">
          <mxGeometry width="50" height="50" relative="1" as="geometry">
            <mxPoint x="380" y="330" as="sourcePoint" />
            <mxPoint x="430" y="280" as="targetPoint" />
          </mxGeometry>
        </mxCell>
        <mxCell id="-qMNbedY1m8K66-bMCqv-44" value="" style="endArrow=classic;html=1;rounded=0;exitX=1;exitY=1;exitDx=0;exitDy=0;" edge="1" parent="1" target="-qMNbedY1m8K66-bMCqv-39">
          <mxGeometry width="50" height="50" relative="1" as="geometry">
            <mxPoint x="330" y="170" as="sourcePoint" />
            <mxPoint x="432" y="227" as="targetPoint" />
          </mxGeometry>
        </mxCell>
        <mxCell id="-qMNbedY1m8K66-bMCqv-46" value="" style="endArrow=classic;html=1;rounded=0;exitX=1;exitY=1;exitDx=0;exitDy=0;" edge="1" parent="1" target="-qMNbedY1m8K66-bMCqv-41">
          <mxGeometry width="50" height="50" relative="1" as="geometry">
            <mxPoint x="318" y="235" as="sourcePoint" />
            <mxPoint x="420" y="292" as="targetPoint" />
          </mxGeometry>
        </mxCell>
        <mxCell id="-qMNbedY1m8K66-bMCqv-51" value="" style="edgeStyle=orthogonalEdgeStyle;rounded=0;orthogonalLoop=1;jettySize=auto;html=1;" edge="1" parent="1" source="-qMNbedY1m8K66-bMCqv-47" target="-qMNbedY1m8K66-bMCqv-50">
          <mxGeometry relative="1" as="geometry" />
        </mxCell>
        <mxCell id="-qMNbedY1m8K66-bMCqv-47" value="Randevu Ara" style="ellipse;whiteSpace=wrap;html=1;" vertex="1" parent="1">
          <mxGeometry x="430" y="490" width="80" height="80" as="geometry" />
        </mxCell>
        <mxCell id="-qMNbedY1m8K66-bMCqv-50" value="hasta bilgileri" style="ellipse;whiteSpace=wrap;html=1;" vertex="1" parent="1">
          <mxGeometry x="430" y="650" width="80" height="80" as="geometry" />
        </mxCell>
        <mxCell id="-qMNbedY1m8K66-bMCqv-59" value="" style="endArrow=none;html=1;rounded=0;entryX=0.25;entryY=0.938;entryDx=0;entryDy=0;entryPerimeter=0;" edge="1" parent="1" target="-qMNbedY1m8K66-bMCqv-33">
          <mxGeometry width="50" height="50" relative="1" as="geometry">
            <mxPoint x="50" y="260" as="sourcePoint" />
            <mxPoint x="100" y="210" as="targetPoint" />
          </mxGeometry>
        </mxCell>
        <mxCell id="-qMNbedY1m8K66-bMCqv-60" value="" style="endArrow=none;html=1;rounded=0;entryX=-0.025;entryY=0.35;entryDx=0;entryDy=0;entryPerimeter=0;" edge="1" parent="1" target="-qMNbedY1m8K66-bMCqv-32">
          <mxGeometry width="50" height="50" relative="1" as="geometry">
            <mxPoint x="60" y="265" as="sourcePoint" />
            <mxPoint x="110" y="230" as="targetPoint" />
          </mxGeometry>
        </mxCell>
        <mxCell id="-qMNbedY1m8K66-bMCqv-61" value="" style="endArrow=none;html=1;rounded=0;" edge="1" parent="1">
          <mxGeometry width="50" height="50" relative="1" as="geometry">
            <mxPoint x="130" y="350" as="sourcePoint" />
            <mxPoint x="60" y="270" as="targetPoint" />
          </mxGeometry>
        </mxCell>
      </root>
    </mxGraphModel>
  </diagram>
</mxfile>
